Coordinates
version=1
nRows=5
nColumns=107
inDegrees=yes

Units are S.I. units (second, meters, Newtons, ...)
If the header above contains a line with 'inDegrees', this indicates whether rotational values are in degrees (yes) or radians (no).

endheader
time	sternoclavicular_r2	sternoclavicular_r3	unrotscap_r3	unrotscap_r2	acromioclavicular_r2	acromioclavicular_r3	acromioclavicular_r1	unrothum_r1	unrothum_r3	unrothum_r2	elv_angle	shoulder_elv	shoulder1_r2	shoulder_rot	elbow_flexion	pro_sup	deviation	flexion	proximal_distal_r1	proximal_distal_r3	cmc_flexion	cmc_abduction	mp_flexion	ip_flexion	mcp2_flexion	mcp2_abduction	pm2_flexion	md2_flexion	mcp3_flexion	mcp3_abduction	pm3_flexion	md3_flexion	mcp4_flexion	mcp4_abduction	pm4_flexion	md4_flexion	mcp5_flexion	mcp5_abduction	pm5_flexion	md5_flexion	bicpt_tx	bicpt_ty	bicpt_tz	bicpt2_tx	bicpt2_ty	bicpt2_tz	ptpt_tx	ptpt_ty	ptpt_tz	FCUpt_tx	FCUpt_ty	FCUpt_tz	EDCpt_tx	EDCpt_ty	EDCpt_tz	APLpt_tx	APLpt_ty	APLpt_tz	FPLpt_tx	FPLpt_ty	FPLpt_tz	FPLpt2_tx	FPLpt2_ty	FPLpt2_tz	PEC1pt2_tx	PEC1pt2_ty	PEC1pt2_tz	PEC1pt3_tx	PEC1pt3_ty	PEC1pt3_tz	PEC2pt2_tx	PEC2pt2_ty	PEC2pt2_tz	PEC2pt3_tx	PEC2pt3_ty	PEC2pt3_tz	PEC3pt2_tx	PEC3pt2_ty	PEC3pt2_tz	PEC3pt3_tx	PEC3pt3_ty	PEC3pt3_tz	DELT2pt2a_tx	DELT2pt2a_ty	DELT2pt2a_tz	DELT2pt2_tx	DELT2pt2_ty	DELT2pt2_tz	LAT1pt2_tx	LAT1pt2_ty	LAT1pt2_tz	LAT1pt3_tx	LAT1pt3_ty	LAT1pt3_tz	LAT2pt2_tx	LAT2pt2_ty	LAT2pt2_tz	LAT2pt3_tx	LAT2pt3_ty	LAT2pt3_tz	LAT3pt2_tx	LAT3pt2_ty	LAT3pt2_tz	LAT3pt3_tx	LAT3pt3_ty	LAT3pt3_tz
      1.56666667	     -0.34868090	      0.14768477	     -0.14768477	      0.34868090	     -0.07060079	      0.57057075	      0.25646763	     -0.25646763	     -0.57057075	      0.07060079	     93.05161814	     82.55330352	     -1.62405711	     19.46967795	     29.80632460	    -71.62955578	      0.42603652	      1.05794570	      0.42962679	      0.52897285	     17.95917756	    -24.51266291	     -2.85909806	      4.23473032	     39.16815714	     -2.87484278	     19.62490853	      0.21529420	     47.22612823	     -8.01329157	     20.11772585	     20.72801258	     45.93187422	    -13.64014258	     12.71294457	     23.10429420	     47.14471393	    -14.36345318	    -33.19022892	      5.10886650	      0.00088590	     -0.03101626	     -0.00485027	      0.00211191	     -0.01829703	     -0.01065082	      0.01284262	     -0.06147771	      0.00572015	     -0.00153548	     -0.18404806	      0.00509814	      0.00859553	     -0.00123772	     -0.00242899	     -0.00201974	     -0.00080790	     -0.00403948	     -0.00258527	     -0.00775580	     -0.00436264	      0.00001684	     -0.00026982	     -0.00032379	      0.00270592	      0.00949364	      0.00660427	     -0.00885156	      0.02137215	     -0.02027144	      0.00270592	      0.00949364	      0.00660427	      0.00059622	      0.01981281	     -0.01041090	      0.00418221	      0.00527929	      0.01651110	      0.00000000	      0.00912565	      0.00000000	     -0.00775084	     -0.03581899	     -0.00753108	     -0.01941839	     -0.00155463	     -0.00563064	     -0.00096312	      0.01614377	     -0.00660427	      0.00266005	      0.02329840	     -0.01926245	     -0.00646668	      0.01398821	     -0.00591633	     -0.01348372	      0.02953576	     -0.03306721	     -0.02531637	      0.01563928	     -0.00793430	     -0.01678585	      0.03412206	     -0.04132255
      1.60000000	     -0.34854692	      0.14762802	     -0.14762802	      0.34854692	     -0.07057366	      0.57035151	      0.25636908	     -0.25636908	     -0.57035151	      0.07057366	     93.05602154	     82.52158157	     -1.62413396	     19.51817237	     29.70448989	    -71.49401576	      0.42664228	      1.05731676	      0.43002604	      0.52865838	     17.93142843	    -24.49593247	     -2.87418980	      4.22750057	     39.12873012	     -2.89723781	     19.62078864	      0.21128583	     47.19185119	     -8.02251307	     20.11003391	     20.72718202	     45.91944756	    -13.63768705	     12.69891310	     23.10535827	     47.14906187	    -14.36028925	    -33.19534744	      5.10537604	      0.00088253	     -0.03100459	     -0.00484839	      0.00214671	     -0.01826937	     -0.01065752	      0.01283260	     -0.06148418	      0.00570923	     -0.00152650	     -0.18404953	      0.00508581	      0.00857926	     -0.00123687	     -0.00242178	     -0.00201798	     -0.00080719	     -0.00403597	     -0.00258302	     -0.00774906	     -0.00435885	      0.00001691	     -0.00026965	     -0.00032359	      0.00270488	      0.00948999	      0.00660173	     -0.00884815	      0.02136394	     -0.02026365	      0.00270488	      0.00948999	      0.00660173	      0.00059599	      0.01980520	     -0.01040690	      0.00418108	      0.00527726	      0.01650862	      0.00000000	      0.00911858	      0.00000000	     -0.00774787	     -0.03580523	     -0.00752523	     -0.01947199	     -0.00156268	     -0.00565782	     -0.00096275	      0.01613757	     -0.00660173	      0.00265903	      0.02328944	     -0.01925505	     -0.00646420	      0.01398284	     -0.00591405	     -0.01347854	      0.02952441	     -0.03305451	     -0.02530664	      0.01563327	     -0.00793125	     -0.01677940	      0.03410895	     -0.04130667
      1.63333333	     -0.34862272	      0.14766013	     -0.14766013	      0.34862272	     -0.07058901	      0.57047555	      0.25642483	     -0.25642483	     -0.57047555	      0.07058901	     93.04965352	     82.53952820	     -1.62402282	     19.45023524	     29.62991622	    -70.69517688	      0.42598660	      1.05920612	      0.42959395	      0.52960306	     17.36002415	    -24.50668410	     -3.17689271	      4.08839064	     38.56919501	     -3.19643066	     19.62457728	      0.16673506	     47.02182027	     -7.96456981	     20.14881587	     20.76848021	     46.19729303	    -13.59751479	     12.65049395	     23.17750598	     47.74631158	    -14.35537203	    -33.05916646	      5.11034774	      0.00088007	     -0.03099604	     -0.00484701	      0.00235130	     -0.01824911	     -0.01069671	      0.01277358	     -0.06152235	      0.00564488	     -0.00147347	     -0.18405812	      0.00501328	      0.00848340	     -0.00123177	     -0.00237940	     -0.00202326	     -0.00080931	     -0.00404653	     -0.00258978	     -0.00776934	     -0.00437025	      0.00001830	     -0.00026659	     -0.00031990	      0.00270546	      0.00949205	      0.00660317	     -0.00885008	      0.02136858	     -0.02026806	      0.00270546	      0.00949205	      0.00660317	      0.00059612	      0.01980950	     -0.01040916	      0.00418172	      0.00527841	      0.01651002	      0.00000000	      0.00912258	      0.00000000	     -0.00774955	     -0.03581301	     -0.00752854	     -0.01939691	     -0.00155141	     -0.00561976	     -0.00096296	      0.01614108	     -0.00660317	      0.00265961	      0.02329451	     -0.01925924	     -0.00646560	      0.01398588	     -0.00591534	     -0.01348147	      0.02953083	     -0.03306169	     -0.02531214	      0.01563667	     -0.00793297	     -0.01678305	      0.03411637	     -0.04131565
      1.66666667	     -0.34848838	      0.14760323	     -0.14760323	      0.34848838	     -0.07056181	      0.57025572	      0.25632602	     -0.25632602	     -0.57025572	      0.07056181	     93.02119769	     82.50772199	     -1.62352617	     19.43033786	     29.61331940	    -70.68883196	      0.42601022	      1.05917987	      0.42960934	      0.52958993	     17.35941159	    -24.49993662	     -3.17702184	      4.08823011	     38.56684264	     -3.19743582	     19.62510064	      0.16673443	     47.02042794	     -7.96486556	     20.14920268	     20.76870850	     46.19627052	    -13.59740588	     12.64933293	     23.17768427	     47.74579229	    -14.35510514	    -33.05985833	      5.11023187	      0.00087952	     -0.03099414	     -0.00484671	      0.00235285	     -0.01824460	     -0.01069698	      0.01277311	     -0.06152265	      0.00564436	     -0.00147304	     -0.18405818	      0.00501273	      0.00848264	     -0.00123172	     -0.00237908	     -0.00202319	     -0.00080928	     -0.00404639	     -0.00258969	     -0.00776906	     -0.00437010	      0.00001830	     -0.00026657	     -0.00031988	      0.00270442	      0.00948840	      0.00660062	     -0.00884667	      0.02136035	     -0.02026025	      0.00270442	      0.00948840	      0.00660062	      0.00059589	      0.01980187	     -0.01040515	      0.00418059	      0.00527638	      0.01650754	      0.00000000	      0.00911549	      0.00000000	     -0.00774656	     -0.03579921	     -0.00752267	     -0.01937493	     -0.00154812	     -0.00560864	     -0.00096259	      0.01613486	     -0.00660062	      0.00265858	      0.02328553	     -0.01925182	     -0.00646311	      0.01398049	     -0.00591306	     -0.01347627	      0.02951945	     -0.03304895	     -0.02530239	      0.01563064	     -0.00792992	     -0.01677658	      0.03410322	     -0.04129973
      1.70000000	     -0.34858057	      0.14764228	     -0.14764228	      0.34858057	     -0.07058048	      0.57040658	      0.25639383	     -0.25639383	     -0.57040658	      0.07058048	     93.03546088	     82.52954936	     -1.62377511	     19.48683995	     29.55631413	    -70.56891874	      0.42632573	      1.05894283	      0.42981743	      0.52947142	     17.32546058	    -24.49270969	     -3.18999934	      4.08053187	     38.54337467	     -3.23776040	     19.64362043	      0.16907842	     47.03701553	     -7.96515178	     20.17213694	     20.77901494	     46.21413289	    -13.59003267	     12.64604009	     23.18565393	     47.76064915	    -14.34554214	    -33.06040145	      5.10688482	      0.00087763	     -0.03098761	     -0.00484565	      0.00238342	     -0.01822912	     -0.01070278	      0.01276425	     -0.06152838	      0.00563471	     -0.00146506	     -0.18405945	      0.00500189	      0.00846825	     -0.00123094	     -0.00237275	     -0.00202253	     -0.00080901	     -0.00404506	     -0.00258884	     -0.00776652	     -0.00436867	      0.00001838	     -0.00026638	     -0.00031965	      0.00270514	      0.00949091	      0.00660237	     -0.00884901	      0.02136600	     -0.02026561	      0.00270514	      0.00949091	      0.00660237	      0.00059605	      0.01980711	     -0.01040790	      0.00418137	      0.00527777	      0.01650924	      0.00000000	      0.00912036	      0.00000000	     -0.00774861	     -0.03580868	     -0.00752670	     -0.01943735	     -0.00155748	     -0.00564025	     -0.00096285	      0.01613913	     -0.00660237	      0.00265929	      0.02329169	     -0.01925691	     -0.00646482	      0.01398419	     -0.00591462	     -0.01347984	      0.02952726	     -0.03305770	     -0.02530908	      0.01563478	     -0.00793201	     -0.01678102	      0.03411224	     -0.04131066
